<?xml version="1.0" encoding="utf-8"?>
<!-- Generator: Adobe Illustrator 24.1.2, SVG Export Plug-In . SVG Version: 6.00 Build 0)  -->
<svg version="1.1" id="Layer_1" xmlns="http://www.w3.org/2000/svg" xmlns:xlink="http://www.w3.org/1999/xlink" x="0px" y="0px"
	 viewBox="0 0 24 24" style="enable-background:new 0 0 24 24;" xml:space="preserve">
<style type="text/css">
	.st0{fill:none;}
	.st1{fill:#333333;}
</style>
<g>
	<rect class="st0" width="24" height="24"/>
</g>
<path class="st1" d="M18,6H6C4.9,6,4,5.1,4,4v0c0-1.1,0.9-2,2-2h12c1.1,0,2,0.9,2,2v0C20,5.1,19.1,6,18,6z"/>
<path class="st1" d="M18,14h-8c-1.1,0-2-0.9-2-2v0c0-1.1,0.9-2,2-2h8c1.1,0,2,0.9,2,2v0C20,13.1,19.1,14,18,14z"/>
<path class="st1" d="M18,22H6c-1.1,0-2-0.9-2-2v0c0-1.1,0.9-2,2-2h12c1.1,0,2,0.9,2,2v0C20,21.1,19.1,22,18,22z"/>
</svg>
