<?xml version="1.0" encoding="utf-8"?>
<!-- Generator: Adobe Illustrator 24.1.2, SVG Export Plug-In . SVG Version: 6.00 Build 0)  -->
<svg version="1.1" id="Layer_1" xmlns="http://www.w3.org/2000/svg" xmlns:xlink="http://www.w3.org/1999/xlink" x="0px" y="0px"
	 viewBox="0 0 16 16" style="enable-background:new 0 0 16 16;" xml:space="preserve">
<style type="text/css">
	.st0{fill-rule:evenodd;clip-rule:evenodd;fill:none;}
	.st1{fill-rule:evenodd;clip-rule:evenodd;}
</style>
<rect class="st0" width="16" height="16"/>
<g>
	<path class="st1" d="M3.6,1h8.9c0.7,0,1.3,0.3,1.8,0.8C14.7,2.2,15,2.9,15,3.6v8.9c0,0.7-0.3,1.3-0.8,1.8l0,0
		c-0.5,0.5-1.1,0.8-1.8,0.8H3.6c-0.7,0-1.3-0.3-1.8-0.8C1.3,13.8,1,13.1,1,12.4V3.6c0-0.7,0.3-1.3,0.8-1.8v0C2.2,1.3,2.9,1,3.6,1z
		 M12.4,2.1H3.6c-0.4,0-0.8,0.2-1,0.4l0,0c-0.3,0.3-0.4,0.6-0.4,1v8.9c0,0.4,0.2,0.8,0.4,1s0.6,0.4,1,0.4h8.9c0.4,0,0.8-0.2,1-0.4
		l0,0c0.3-0.3,0.4-0.6,0.4-1V3.6c0-0.4-0.2-0.8-0.4-1S12.8,2.1,12.4,2.1z M4.9,5.4c-0.3,0-0.5-0.2-0.5-0.5c0-0.3,0.2-0.5,0.5-0.5
		h6.2c0.3,0,0.5,0.2,0.5,0.5c0,0.3-0.2,0.5-0.5,0.5H4.9z M4.9,8.5C4.6,8.5,4.4,8.3,4.4,8s0.2-0.5,0.5-0.5H8c0.3,0,0.5,0.2,0.5,0.5
		S8.3,8.5,8,8.5H4.9z M4.9,11.7c-0.3,0-0.5-0.2-0.5-0.5c0-0.3,0.2-0.5,0.5-0.5h6.2c0.3,0,0.5,0.2,0.5,0.5c0,0.3-0.2,0.5-0.5,0.5H4.9
		z"/>
</g>
</svg>
